<svg id="Grupo_2" data-name="Grupo 2" xmlns="http://www.w3.org/2000/svg" xmlns:xlink="http://www.w3.org/1999/xlink" width="757.368" height="476.601" viewBox="0 0 757.368 476.601">
  <defs>
    <clipPath id="clip-path">
      <rect id="Rectángulo_37" data-name="Rectángulo 37" width="757.368" height="476.601" fill="none"/>
    </clipPath>
  </defs>
  <g id="Grupo_1" data-name="Grupo 1" clip-path="url(#clip-path)">
    <path id="Trazado_1" data-name="Trazado 1" d="M280.819,246.6c-1.021-3.334-3.357-6.456-6.678-7.525s-7.531.548-8.565,3.881c-3.054-2.551-7.735-.526-10.188,2.606-3.97,5.065-.9,13.359-.24,13.9a5.278,5.278,0,0,0,2.655.478l29.7-.165s5.449-.4,7.964-1.4c5.059-2.018,8.5-10.725,5.244-15.092-2.22-2.979-6.6-3.608-10.139-2.479a28.492,28.492,0,0,0-9.755,5.8" transform="translate(225.821 212.772)" fill="#6cdd6c"/>
    <path id="Trazado_2" data-name="Trazado 2" d="M257.833,261.395a4.946,4.946,0,0,1-2.85-.711c-1.165-.946-4.123-9.891.087-15.262a10.716,10.716,0,0,1,6.937-4.1,6.176,6.176,0,0,1,3.591.634,7,7,0,0,1,2.931-2.772,8.461,8.461,0,0,1,6.368-.579,11.514,11.514,0,0,1,6.82,6.8,28.677,28.677,0,0,1,9.012-5.07c3.548-1.135,8.573-.73,11.224,2.825,1.526,2.05,1.882,5.078.968,8.31-1.091,3.858-3.7,7.107-6.634,8.28-2.627,1.048-8.028,1.451-8.259,1.468l-29.766.166c-.1.006-.246.011-.429.011m4.934-18.152a5.127,5.127,0,0,0-.556.03,8.827,8.827,0,0,0-5.6,3.359c-3.484,4.444-.881,11.863-.312,12.61a5.7,5.7,0,0,0,1.9.182l29.747-.166c-.013,0,5.261-.4,7.606-1.331s4.558-3.748,5.473-6.99c.747-2.638.511-5.046-.651-6.6-2.077-2.788-6.152-3.058-9.053-2.129a27.55,27.55,0,0,0-9.407,5.6.976.976,0,0,1-.913.21.988.988,0,0,1-.673-.658c-1.048-3.427-3.306-6-6.039-6.878a6.456,6.456,0,0,0-4.862.454,4.8,4.8,0,0,0-2.466,2.784.98.98,0,0,1-1.564.461,4,4,0,0,0-2.636-.929" transform="translate(225.367 212.31)" fill="#50aa50"/>
    <path id="Trazado_3" data-name="Trazado 3" d="M251.882,242.482a9.3,9.3,0,0,0-1.014,5.3c.1.93,1.573.942,1.471,0a7.891,7.891,0,0,1,.813-4.56c.431-.842-.838-1.587-1.271-.743" transform="translate(223.523 215.767)" fill="#50aa50"/>
    <path id="Trazado_4" data-name="Trazado 4" d="M249.289,243.176a10.19,10.19,0,0,0-.127,5.01c.2.925,1.621.533,1.418-.39a8.586,8.586,0,0,1,.127-4.229.736.736,0,0,0-1.418-.391" transform="translate(221.826 216.253)" fill="#50aa50"/>
    <path id="Trazado_5" data-name="Trazado 5" d="M253.808,242.046a.736.736,0,0,0,0-1.471.736.736,0,0,0,0,1.471" transform="translate(225.558 214.398)" fill="#50aa50"/>
    <path id="Trazado_6" data-name="Trazado 6" d="M255.677,245.447v1.307a.736.736,0,0,0,1.471,0v-1.307a.736.736,0,0,0-1.471,0" transform="translate(227.857 218.106)" fill="#50aa50"/>
    <path id="Trazado_7" data-name="Trazado 7" d="M268.813,246.657v.654a.736.736,0,0,0,1.471,0v-.654a.736.736,0,0,0-1.471,0" transform="translate(239.563 219.185)" fill="#50aa50"/>
    <path id="Trazado_8" data-name="Trazado 8" d="M267.473,245.979l.327.327a.736.736,0,0,0,1.04-1.04l-.327-.327a.736.736,0,0,0-1.04,1.04" transform="translate(238.176 218.094)" fill="#50aa50"/>
    <path id="Trazado_9" data-name="Trazado 9" d="M70.742,230.09h-49.8a1.961,1.961,0,0,1,0-3.922h49.8a1.961,1.961,0,0,1,0,3.922" transform="translate(16.922 201.559)" fill="#405b91"/>
    <path id="Trazado_10" data-name="Trazado 10" d="M281.547,138.6h-1.422a2.133,2.133,0,1,0-4.267,0h-1.422a3.555,3.555,0,0,1,7.111,0" transform="translate(244.574 120.354)" fill="#fff"/>
    <path id="Trazado_11" data-name="Trazado 11" d="M284.237,94.819h-1.422a2.133,2.133,0,0,0-4.267,0h-1.422a3.555,3.555,0,0,1,7.111,0" transform="translate(246.972 81.334)" fill="#fff"/>
    <path id="Trazado_12" data-name="Trazado 12" d="M219.171,261.7H151.493l1.15-2.723c4.437-10.526,4.9-19.54,4.219-29.837l-.136-2.084,57.059-.174.015,1.952c.049,6.655,1.85,21.771,4.56,30.312Zm-61.836-3.922h56.547a149.042,149.042,0,0,1-3.951-26.963l-49.031.151c.463,9.131-.095,17.437-3.565,26.811" transform="translate(135.009 202.198)" fill="#415b91"/>
    <path id="Trazado_13" data-name="Trazado 13" d="M192.16,323.146c-51.38,0-93-.28-94.828-.932-4.4-1.568-10.146-7.663-10.224-11.986-.166-9.361-.569-22.11-1.034-36.876-1.409-44.513-3.334-105.477-.836-139.212a11.706,11.706,0,0,1,11.6-10.9h.195l296.221.441a11.678,11.678,0,0,1,11.434,11.51c.227,9.855.547,19.924.87,30.132,1.358,42.737,2.757,86.93-1.974,128.722-.187,1.647-.269,3.467-.354,5.352-.4,8.768-.9,19.682-12.2,21.909-5.526,1.091-115.153,1.836-198.876,1.836M96.865,126.4a8.555,8.555,0,0,0-8.482,7.975c-2.487,33.57-.564,94.438.84,138.881.469,14.774.872,27.536,1.038,36.92.049,2.727,4.609,7.814,8.13,9.072,6.305,1.288,284.794.335,292.034-1.025,8.873-1.753,9.272-10.5,9.656-18.965.091-1.957.178-3.849.371-5.564,4.709-41.561,3.308-85.641,1.957-128.266-.323-10.214-.645-20.292-.872-30.157a8.534,8.534,0,0,0-8.325-8.431L97.007,126.4Z" transform="translate(74.885 109.834)" fill="#415b91"/>
    <path id="Trazado_14" data-name="Trazado 14" d="M379.737,129.041l-279.094-.367c-5.019-.076-9.231,3.366-9.611,7.864C87.906,173.893,92.169,251.833,92.8,283.2c.062,3.056,5.053,7.64,8.648,8.777,4.231,1.335,269.457.325,275.938-.806,11.642-2.033,9.66-13.953,10.636-21.584,5.524-43.142,2.131-90.04,1.033-132.236-.119-4.571-4.231-8.236-9.316-8.312" transform="translate(80.117 114.672)" fill="#b6d0fb" fill-rule="evenodd"/>
    <path id="Trazado_15" data-name="Trazado 15" d="M258.112,257.769H141.987c-4.611,0-7.022-3.625-7.022-7.205s2.411-7.215,7.022-7.215H258.112c4.609,0,7.022,3.624,7.022,7.205s-2.413,7.215-7.022,7.215M141.987,246.5a4.061,4.061,0,0,0,0,8.113H258.112a4.061,4.061,0,0,0,0-8.113Z" transform="translate(120.279 216.87)" fill="#415b91"/>
    <path id="Trazado_16" data-name="Trazado 16" d="M96.157,220.993h0" transform="translate(85.235 196.947)" fill="#415b91" fill-rule="evenodd"/>
    <path id="Trazado_17" data-name="Trazado 17" d="M97.758,226.956c5.216,0,5.223-8.106,0-8.106s-5.223,8.106,0,8.106" transform="translate(83.633 195.037)" fill="#415b91"/>
    <path id="Trazado_18" data-name="Trazado 18" d="M104.8,220.993h0" transform="translate(92.935 196.947)" fill="#415b91" fill-rule="evenodd"/>
    <path id="Trazado_19" data-name="Trazado 19" d="M106.4,226.956c5.216,0,5.223-8.106,0-8.106s-5.223,8.106,0,8.106" transform="translate(91.333 195.037)" fill="#415b91"/>
    <path id="Trazado_20" data-name="Trazado 20" d="M113.437,220.993h0" transform="translate(100.635 196.947)" fill="#415b91" fill-rule="evenodd"/>
    <path id="Trazado_21" data-name="Trazado 21" d="M115.039,226.956c5.216,0,5.223-8.106,0-8.106s-5.223,8.106,0,8.106" transform="translate(99.033 195.037)" fill="#415b91"/>
    <path id="Trazado_22" data-name="Trazado 22" d="M169.493,126.589h0" transform="translate(150.835 112.815)" fill="#415b91" fill-rule="evenodd"/>
    <path id="Trazado_23" data-name="Trazado 23" d="M170.244,129.385a1.9,1.9,0,0,0,0-3.8,1.9,1.9,0,0,0,0,3.8" transform="translate(150.084 111.919)" fill="#415b91"/>
    <path id="Trazado_24" data-name="Trazado 24" d="M361.408,270.721H321.395l15.391-50.548h9.233Z" transform="translate(286.424 196.216)" fill="#b6d0fb"/>
    <rect id="Rectángulo_1" data-name="Rectángulo 1" width="46.627" height="5.776" transform="translate(604.511 466.937)" fill="#b6d0fb"/>
    <path id="Trazado_25" data-name="Trazado 25" d="M325.242,240.219l-3.849,12.637h40.016l-3.849-12.637Z" transform="translate(286.423 214.081)" fill="#415b91"/>
    <path id="Trazado_26" data-name="Trazado 26" d="M325.463,239.492h24.625l-3.849-12.637H329.31Z" transform="translate(290.049 202.171)" fill="#415b91"/>
    <path id="Trazado_27" data-name="Trazado 27" d="M355.563,280.113h8.879V245.735H410.02v34.378H418.9V245.735h9.4V218.284h-7.5v-2.536H407.864v2.536H367.485v-2.536H354.547v2.536h-8.232v27.451h9.248Zm69.872-58.963v.117l-5.473,21.6H410.2l5.5-21.717Zm-25.471,21.717H390.2l5.5-21.717h9.768Zm-20,0H370.2l5.5-21.717h9.766ZM355.7,221.149h9.766l-5.5,21.717H350.2Z" transform="translate(308.632 192.272)" fill="#b6d0fb"/>
    <path id="Trazado_28" data-name="Trazado 28" d="M138.95,91.993l2.659-2.661a1.375,1.375,0,0,0,0-1.954l-2.319-2.313a1.958,1.958,0,0,1-.308-2.186l1.887-4.584a1.962,1.962,0,0,1,1.772-1.33h3.279a1.381,1.381,0,0,0,1.381-1.373V71.82a1.377,1.377,0,0,0-1.381-1.377h-3.279a1.963,1.963,0,0,1-1.772-1.326l-1.887-4.582a1.967,1.967,0,0,1,.308-2.192l2.319-2.313a1.366,1.366,0,0,0,0-1.946l-2.659-2.672a1.383,1.383,0,0,0-1.952,0l-2.319,2.319a1.965,1.965,0,0,1-2.184.318l-4.59-1.891a1.965,1.965,0,0,1-1.324-1.774V51.1a1.386,1.386,0,0,0-1.379-1.382h-3.763a1.388,1.388,0,0,0-1.382,1.382v3.279a1.962,1.962,0,0,1-1.324,1.774l-4.588,1.891a1.963,1.963,0,0,1-2.184-.318l-2.322-2.315a1.365,1.365,0,0,0-1.942,0l-2.67,2.668a1.373,1.373,0,0,0,0,1.946l2.317,2.313a1.965,1.965,0,0,1,.316,2.192l-1.889,4.582A1.965,1.965,0,0,1,104,70.443h-3.283a1.379,1.379,0,0,0-1.379,1.377v3.773a1.383,1.383,0,0,0,1.379,1.373H104a1.964,1.964,0,0,1,1.772,1.33l1.889,4.584a1.956,1.956,0,0,1-.316,2.186l-2.317,2.313a1.382,1.382,0,0,0,0,1.954l2.67,2.661a1.362,1.362,0,0,0,1.942,0l2.322-2.315a1.953,1.953,0,0,1,2.188-.31l4.584,1.887a1.953,1.953,0,0,1,1.324,1.77V96.31a1.384,1.384,0,0,0,1.382,1.377H125.2a1.382,1.382,0,0,0,1.379-1.377V93.025a1.956,1.956,0,0,1,1.324-1.77l4.59-1.887a1.95,1.95,0,0,1,2.184.31L137,91.993a1.373,1.373,0,0,0,1.952,0m-15.629-7.285a11,11,0,1,1,11-11,11.008,11.008,0,0,1-11,11" transform="translate(88.526 44.311)" fill="#b6d0fb"/>
    <path id="Trazado_29" data-name="Trazado 29" d="M147.48,82.954l-.671-2.235a.862.862,0,0,0-1.069-.573l-1.938.59a1.212,1.212,0,0,1-1.292-.475l-1.954-2.37a1.221,1.221,0,0,1-.2-1.356l.957-1.789a.861.861,0,0,0-.342-1.161l-2.06-1.1a.856.856,0,0,0-1.157.35l-.963,1.791a1.218,1.218,0,0,1-1.239.579l-3.06-.308a1.2,1.2,0,0,1-1.1-.811l-.59-1.944a.85.85,0,0,0-1.063-.567l-2.235.669a.858.858,0,0,0-.573,1.07l.592,1.94a1.2,1.2,0,0,1-.478,1.288L124.672,78.5a1.221,1.221,0,0,1-1.354.2l-1.791-.961a.85.85,0,0,0-1.154.352l-1.106,2.052a.861.861,0,0,0,.348,1.159l1.793.966a1.2,1.2,0,0,1,.581,1.235l-.3,3.058a1.2,1.2,0,0,1-.815,1.1l-1.944.594a.85.85,0,0,0-.571,1.065l.675,2.232a.851.851,0,0,0,1.069.569l1.944-.586a1.221,1.221,0,0,1,1.282.473l1.954,2.375a1.226,1.226,0,0,1,.2,1.356l-.963,1.789a.868.868,0,0,0,.354,1.161l2.054,1.1a.857.857,0,0,0,1.157-.348l.964-1.791a1.213,1.213,0,0,1,1.239-.584l3.052.312a1.216,1.216,0,0,1,1.108.815l.584,1.94a.858.858,0,0,0,1.069.571l2.233-.675a.866.866,0,0,0,.577-1.063l-.59-1.942a1.208,1.208,0,0,1,.465-1.288l2.375-1.954a1.23,1.23,0,0,1,1.358-.206l1.787.961a.852.852,0,0,0,1.161-.348l1.1-2.058a.856.856,0,0,0-.354-1.157l-1.791-.963a1.2,1.2,0,0,1-.579-1.233l.31-3.066a1.22,1.22,0,0,1,.811-1.1l1.946-.586a.855.855,0,0,0,.565-1.065m-8.55,6.4a6.819,6.819,0,1,1-2.788-9.231,6.817,6.817,0,0,1,2.788,9.231" transform="translate(105.442 63.751)" fill="#b6d0fb"/>
    <path id="Trazado_30" data-name="Trazado 30" d="M222.6,102.2H160.949a1.961,1.961,0,0,1,0-3.922H222.6a1.961,1.961,0,0,1,0,3.922" transform="translate(141.688 87.584)" fill="#405b91"/>
    <path id="Trazado_31" data-name="Trazado 31" d="M174.109,117.01H74.523a1.961,1.961,0,1,1,0-3.922h99.586a1.961,1.961,0,1,1,0,3.922" transform="translate(64.666 100.783)" fill="#405b91"/>
    <path id="Trazado_32" data-name="Trazado 32" d="M426.586,145.049H327a1.961,1.961,0,1,1,0-3.922h99.584a1.961,1.961,0,1,1,0,3.922" transform="translate(289.672 125.771)" fill="#405b91"/>
    <path id="Trazado_33" data-name="Trazado 33" d="M755.407,253.859H1.961a1.961,1.961,0,0,1,0-3.922H755.407a1.961,1.961,0,1,1,0,3.922" transform="translate(0 222.741)" fill="#405b91"/>
    <path id="Trazado_34" data-name="Trazado 34" d="M267.522,87.328a15.82,15.82,0,0,0-13.643,23.823l.259.439L238.124,127.6a2.8,2.8,0,0,0-.789,1.821,3.476,3.476,0,0,0,1.208,2.432,3.829,3.829,0,0,0,2.678,1.3,3.253,3.253,0,0,0,1.885-.641L259.08,116.53l.443.261a15.819,15.819,0,1,0,8-29.463m0,26.938a11.121,11.121,0,1,1,11.124-11.12,11.135,11.135,0,0,1-11.124,11.12" transform="translate(211.51 77.826)" fill="#b6d0fb"/>
    <rect id="Rectángulo_2" data-name="Rectángulo 2" width="11.455" height="2.931" transform="translate(473.172 180.353)" fill="#b6d0fb"/>
    <path id="Trazado_35" data-name="Trazado 35" d="M98.909,323.12a1.96,1.96,0,0,1-1.961-1.961V170.1a1.961,1.961,0,0,1,3.922,0V321.159a1.96,1.96,0,0,1-1.961,1.961" transform="translate(86.399 149.847)" fill="#405b91"/>
    <path id="Trazado_36" data-name="Trazado 36" d="M117.47,323.12a1.96,1.96,0,0,1-1.961-1.961V170.1a1.961,1.961,0,0,1,3.922,0V321.159a1.96,1.96,0,0,1-1.961,1.961" transform="translate(102.94 149.847)" fill="#405b91"/>
    <path id="Trazado_37" data-name="Trazado 37" d="M134.012,177.523h-35.1a1.961,1.961,0,1,1,0-3.922h35.1a1.961,1.961,0,1,1,0,3.922" transform="translate(86.398 154.711)" fill="#405b91"/>
    <path id="Trazado_38" data-name="Trazado 38" d="M134.012,186.648h-35.1a1.961,1.961,0,1,1,0-3.922h35.1a1.961,1.961,0,1,1,0,3.922" transform="translate(86.398 162.843)" fill="#405b91"/>
    <path id="Trazado_39" data-name="Trazado 39" d="M134.012,195.774h-35.1a1.961,1.961,0,1,1,0-3.922h35.1a1.961,1.961,0,1,1,0,3.922" transform="translate(86.398 170.976)" fill="#405b91"/>
    <path id="Trazado_40" data-name="Trazado 40" d="M134.012,204.9h-35.1a1.961,1.961,0,1,1,0-3.922h35.1a1.961,1.961,0,1,1,0,3.922" transform="translate(86.398 179.109)" fill="#405b91"/>
    <path id="Trazado_41" data-name="Trazado 41" d="M134.012,214.024h-35.1a1.961,1.961,0,1,1,0-3.922h35.1a1.961,1.961,0,1,1,0,3.922" transform="translate(86.398 187.241)" fill="#405b91"/>
    <path id="Trazado_42" data-name="Trazado 42" d="M134.012,223.149h-35.1a1.961,1.961,0,1,1,0-3.922h35.1a1.961,1.961,0,1,1,0,3.922" transform="translate(86.398 195.373)" fill="#405b91"/>
    <path id="Trazado_43" data-name="Trazado 43" d="M134.012,232.274h-35.1a1.961,1.961,0,1,1,0-3.922h35.1a1.961,1.961,0,1,1,0,3.922" transform="translate(86.398 203.505)" fill="#405b91"/>
    <path id="Trazado_44" data-name="Trazado 44" d="M134.012,241.4h-35.1a1.961,1.961,0,0,1,0-3.922h35.1a1.961,1.961,0,0,1,0,3.922" transform="translate(86.398 211.636)" fill="#405b91"/>
    <path id="Trazado_45" data-name="Trazado 45" d="M73.629,178.5a1.96,1.96,0,0,1-1.961-1.961V168.9a1.961,1.961,0,0,1,3.922,0v7.637a1.96,1.96,0,0,1-1.961,1.961" transform="translate(63.87 148.777)" fill="#405b91"/>
    <path id="Trazado_46" data-name="Trazado 46" d="M79.247,172.883H71.612a1.961,1.961,0,1,1,0-3.922h7.635a1.961,1.961,0,1,1,0,3.922" transform="translate(62.07 150.576)" fill="#405b91"/>
    <path id="Trazado_47" data-name="Trazado 47" d="M166.9,34.065a1.96,1.96,0,0,1-1.961-1.961V24.467a1.961,1.961,0,0,1,3.922,0V32.1a1.961,1.961,0,0,1-1.961,1.961" transform="translate(146.988 20.057)" fill="#405b91"/>
    <path id="Trazado_48" data-name="Trazado 48" d="M172.514,28.447h-7.635a1.961,1.961,0,1,1,0-3.922h7.635a1.961,1.961,0,1,1,0,3.922" transform="translate(145.189 21.856)" fill="#405b91"/>
    <path id="Trazado_49" data-name="Trazado 49" d="M203.051,240.518a1.972,1.972,0,0,1-.539-.076l-7.343-2.1a1.962,1.962,0,0,1,1.078-3.773l7.342,2.1a1.962,1.962,0,0,1-.537,3.849" transform="translate(172.664 208.986)" fill="#405b91"/>
    <path id="Trazado_50" data-name="Trazado 50" d="M197.1,244.379a1.963,1.963,0,0,1-1.887-2.5l2.1-7.343a1.962,1.962,0,1,1,3.773,1.078l-2.1,7.342a1.965,1.965,0,0,1-1.886,1.424" transform="translate(173.9 207.75)" fill="#405b91"/>
    <path id="Trazado_51" data-name="Trazado 51" d="M182.651,118.555a1.972,1.972,0,0,1-.539-.076l-7.342-2.1a1.961,1.961,0,1,1,1.076-3.771l7.343,2.1a1.962,1.962,0,0,1-.539,3.849" transform="translate(154.484 100.288)" fill="#405b91"/>
    <path id="Trazado_52" data-name="Trazado 52" d="M176.7,122.412a1.963,1.963,0,0,1-1.887-2.5l2.1-7.343a1.961,1.961,0,0,1,3.771,1.078l-2.1,7.342a1.961,1.961,0,0,1-1.884,1.424" transform="translate(155.72 99.052)" fill="#405b91"/>
    <path id="Trazado_53" data-name="Trazado 53" d="M215.632,90.335a27.246,27.246,0,1,1-27.246-27.246,27.246,27.246,0,0,1,27.246,27.246" transform="translate(143.605 56.224)" fill="#b6d0fb"/>
    <path id="Trazado_54" data-name="Trazado 54" d="M205.575,87.115A20.411,20.411,0,1,1,185.166,66.7a20.41,20.41,0,0,1,20.41,20.412" transform="translate(146.827 59.445)" fill="#fff"/>
    <path id="Trazado_55" data-name="Trazado 55" d="M185.536,108.686a21.2,21.2,0,1,1,21.2-21.2,21.225,21.225,0,0,1-21.2,21.2m0-40.821a19.621,19.621,0,1,0,19.621,19.621,19.643,19.643,0,0,0-19.621-19.621" transform="translate(146.455 59.073)" fill="#405b91"/>
    <path id="Trazado_56" data-name="Trazado 56" d="M175.919,83.555a.79.79,0,0,1-.791-.789V72.375a.791.791,0,0,1,1.581,0V82.767a.79.79,0,0,1-.791.789" transform="translate(156.072 63.795)" fill="#405b91"/>
    <path id="Trazado_57" data-name="Trazado 57" d="M188.094,78.658H175.919a.79.79,0,1,1,0-1.579h12.175a.79.79,0,1,1,0,1.579" transform="translate(156.072 68.692)" fill="#405b91"/>
    <path id="Trazado_58" data-name="Trazado 58" d="M176.733,68.3a.807.807,0,1,1-.808-.806.808.808,0,0,1,.808.806" transform="translate(156.065 60.152)" fill="#405b91"/>
    <path id="Trazado_59" data-name="Trazado 59" d="M183.265,71.676a.806.806,0,1,1,0-1.14.808.808,0,0,1,0,1.14" transform="translate(162.098 62.651)" fill="#405b91"/>
    <path id="Trazado_60" data-name="Trazado 60" d="M185.5,78.682a.806.806,0,1,1,.806-.806.806.806,0,0,1-.806.806" transform="translate(164.597 68.685)" fill="#405b91"/>
    <path id="Trazado_61" data-name="Trazado 61" d="M182.126,85.215a.806.806,0,1,1,1.14,0,.808.808,0,0,1-1.14,0" transform="translate(162.099 74.717)" fill="#405b91"/>
    <path id="Trazado_62" data-name="Trazado 62" d="M175.12,87.45a.806.806,0,1,1,.806.806.806.806,0,0,1-.806-.806" transform="translate(156.065 77.216)" fill="#405b91"/>
    <path id="Trazado_63" data-name="Trazado 63" d="M168.586,84.077a.806.806,0,1,1,0,1.14.8.8,0,0,1,0-1.14" transform="translate(150.032 74.717)" fill="#405b91"/>
    <path id="Trazado_64" data-name="Trazado 64" d="M166.352,77.07a.806.806,0,1,1-.806.806.806.806,0,0,1,.806-.806" transform="translate(147.533 68.684)" fill="#405b91"/>
    <path id="Trazado_65" data-name="Trazado 65" d="M169.726,70.536a.806.806,0,1,1-1.14,0,.808.808,0,0,1,1.14,0" transform="translate(150.032 62.651)" fill="#405b91"/>
    <path id="Trazado_66" data-name="Trazado 66" d="M202.384,72.739h-11.44a.79.79,0,1,1,0-1.579h11.44a.79.79,0,0,1,0,1.579" transform="translate(169.463 63.417)" fill="#405b91"/>
    <path id="Trazado_67" data-name="Trazado 67" d="M202.384,84.577h-11.44a.79.79,0,1,1,0-1.579h11.44a.79.79,0,0,1,0,1.579" transform="translate(169.463 73.967)" fill="#405b91"/>
    <path id="Trazado_68" data-name="Trazado 68" d="M214.583,78.66H193.215a.79.79,0,1,1,0-1.579h21.369a.79.79,0,1,1,0,1.579" transform="translate(171.486 68.694)" fill="#405b91"/>
    <rect id="Rectángulo_3" data-name="Rectángulo 3" width="12.637" height="12.637" transform="translate(410.719 441.663)" fill="#fff"/>
    <path id="Trazado_69" data-name="Trazado 69" d="M231.254,247.617h-14.6v-14.6h14.6Zm-12.637-1.961h10.676V234.98H218.617Z" transform="translate(193.082 207.664)" fill="#415b91"/>
    <path id="Trazado_70" data-name="Trazado 70" d="M238.077,235.75h-11.44a.79.79,0,1,1,0-1.579h11.44a.79.79,0,0,1,0,1.579" transform="translate(201.272 208.691)" fill="#405b91"/>
    <path id="Trazado_71" data-name="Trazado 71" d="M242.376,240.329h-15.46c-.59,0-1.069-.354-1.069-.791s.478-.789,1.069-.789h15.46c.59,0,1.067.354,1.067.789s-.477.791-1.067.791" transform="translate(201.272 212.771)" fill="#405b91"/>
    <path id="Trazado_72" data-name="Trazado 72" d="M248.006,237.911H226.637a.79.79,0,1,1,0-1.579h21.369a.79.79,0,0,1,0,1.579" transform="translate(201.272 210.617)" fill="#405b91"/>
    <rect id="Rectángulo_4" data-name="Rectángulo 4" width="12.637" height="12.637" transform="translate(133.236 256.222)" fill="#fff"/>
    <path id="Trazado_73" data-name="Trazado 73" d="M84.53,149.561h-14.6v-14.6h14.6ZM71.893,147.6H82.569V136.924H71.893Z" transform="translate(62.323 120.278)" fill="#415b91"/>
    <path id="Trazado_74" data-name="Trazado 74" d="M62.367,137.7h11.44a.79.79,0,1,0,0-1.579H62.367a.79.79,0,1,0,0,1.579" transform="translate(54.876 121.305)" fill="#405b91"/>
    <path id="Trazado_75" data-name="Trazado 75" d="M60.224,142.274h15.46c.59,0,1.069-.354,1.069-.789s-.478-.791-1.069-.791H60.224c-.59,0-1.067.354-1.067.791s.477.789,1.067.789" transform="translate(52.72 125.386)" fill="#405b91"/>
    <path id="Trazado_76" data-name="Trazado 76" d="M57.117,139.856H78.485a.79.79,0,1,0,0-1.579H57.117a.79.79,0,1,0,0,1.579" transform="translate(50.197 123.231)" fill="#405b91"/>
    <rect id="Rectángulo_5" data-name="Rectángulo 5" width="3.922" height="168.681" transform="translate(518.644 303.706)" fill="#3f5b91"/>
    <path id="Trazado_77" data-name="Trazado 77" d="M281.4,189.693h-.862A11.67,11.67,0,0,1,268.9,178.057V162.471a11.67,11.67,0,0,1,11.637-11.637h.862a11.671,11.671,0,0,1,11.636,11.637v15.585A11.671,11.671,0,0,1,281.4,189.693" transform="translate(239.64 134.423)" fill="#b6d0fb"/>
    <path id="Trazado_78" data-name="Trazado 78" d="M283.883,166.089q2.071.332,4.14.666c.927.148,1.324-1.269.391-1.418q-2.071-.335-4.14-.666c-.927-.149-1.326,1.269-.391,1.418" transform="translate(252.519 146.743)" fill="#3f5b91"/>
    <path id="Trazado_79" data-name="Trazado 79" d="M283.991,161.434a12.08,12.08,0,0,1,3.251-.113c.942.091.936-1.381,0-1.469a13.361,13.361,0,0,0-3.642.165c-.93.165-.535,1.583.391,1.418" transform="translate(252.267 142.406)" fill="#3f5b91"/>
    <path id="Trazado_80" data-name="Trazado 80" d="M283.735,157.62l3.173-1.26c.87-.344.492-1.768-.39-1.418l-3.175,1.26c-.87.344-.49,1.768.391,1.418" transform="translate(252.075 138.034)" fill="#3f5b91"/>
    <path id="Trazado_81" data-name="Trazado 81" d="M264.683,167.183a16.78,16.78,0,0,0,3.173-.756c.891-.3.509-1.727-.39-1.418a16.836,16.836,0,0,1-3.175.756c-.934.129-.535,1.547.391,1.418" transform="translate(235.06 147.015)" fill="#3f5b91"/>
    <path id="Trazado_82" data-name="Trazado 82" d="M263.573,161.3a16.181,16.181,0,0,1,3.99.611.736.736,0,0,0,.391-1.418,17.9,17.9,0,0,0-4.382-.664.736.736,0,0,0,0,1.471" transform="translate(234.26 142.44)" fill="#3f5b91"/>
    <path id="Trazado_83" data-name="Trazado 83" d="M264.158,154.9q1.589.5,3.177,1.014c.9.287,1.29-1.133.391-1.418q-1.589-.508-3.177-1.014c-.9-.287-1.292,1.131-.391,1.418" transform="translate(234.959 136.745)" fill="#3f5b91"/>
    <path id="Trazado_84" data-name="Trazado 84" d="M270.44,261.616l2.616-22.545H285.8l2.941,22.22Z" transform="translate(241.013 213.057)" fill="#405b91"/>
    <path id="Trazado_85" data-name="Trazado 85" d="M102.937,198.851c-.579-3.584-3.119-12.836-8.705-9.906-9.04,4.739,1.863,22.732-9.029,25.9-.582-7.173-2.124-12.113-5.362-11.82-6.68.607-4.9,16.141-5.014,19.638-.108,3.482-.282,7.052-.439,10.657-7.858,1.409-6.305-19.086-11.084-21.921-7.43-4.408-9.01,5.414-8.805,9.953.348,7.72,2.424,16.956,9.675,21.056,2.392,1.352,6.606,2.878,9.891,2.6a103.071,103.071,0,0,0,1.248,18.169.066.066,0,0,0,.127,0l0-.015,4.4.238c0,.026,0,.053,0,.079-.04,1.938,2.982,1.94,3.011,0,.053-3.726,2.343-22.017,2.616-37.519,3.516.524,7.935-1.11,10.468-2.967,7.5-5.5,8.382-15.627,7-24.149" transform="translate(48.555 167.883)" fill="#6cdd6c"/>
    <path id="Trazado_86" data-name="Trazado 86" d="M81.714,266.17a2.456,2.456,0,0,1-1.269-.344,2.111,2.111,0,0,1-.951-1.229l-3.245-.176-1.182.04-.182-.741a100.554,100.554,0,0,1-1.263-17.441,21.608,21.608,0,0,1-9.464-2.742c-7.735-4.376-9.76-14.243-10.1-21.749-.134-3.02.5-9.267,3.881-11.292,1.713-1.029,3.8-.832,6.184.584,2.311,1.369,3.19,5.577,4.21,10.449,1.381,6.6,2.621,11.349,5.647,11.423l.072-1.619c.127-2.8.252-5.577.335-8.3.017-.533-.011-1.352-.047-2.358-.212-6.116-.6-17.5,5.819-18.084a3.514,3.514,0,0,1,2.68.859c1.793,1.509,2.937,4.993,3.493,10.638,4.057-1.81,3.847-6.513,3.607-11.9-.242-5.447-.492-11.079,4.3-13.59a4.626,4.626,0,0,1,4.41-.193c3.994,2,5.363,9.819,5.507,10.7,1.057,6.534,1.509,18.467-7.334,24.956a17.4,17.4,0,0,1-10.144,3.211c-.227,10.122-1.265,21.27-1.959,28.72-.346,3.735-.62,6.682-.637,7.894a2.229,2.229,0,0,1-1.148,1.969,2.528,2.528,0,0,1-1.218.308m-5.3-3.412,4.679.253-.023.813c-.011.388.129.509.233.571a.854.854,0,0,0,.815,0,.556.556,0,0,0,.289-.53c.017-1.277.282-4.108.647-8.024.711-7.648,1.787-19.2,1.969-29.5l.017-.951.942.14c3.245.484,7.5-1.089,9.849-2.814,8.125-5.961,7.669-17.183,6.672-23.341-.435-2.7-1.959-8.157-4.6-9.479a3.01,3.01,0,0,0-2.89.176c-3.85,2.02-3.635,6.888-3.4,12.039.252,5.666.537,12.088-5.779,13.929l-.982.286-.083-1.021c-.581-7.147-1.952-9.7-3-10.579a1.875,1.875,0,0,0-1.454-.475c-4.851.439-4.48,11.194-4.3,16.363.036,1.052.064,1.912.047,2.47-.085,2.725-.21,5.509-.337,8.317l-.134,3.016-.656.117c-5.379.963-6.891-6.277-8.229-12.667-.862-4.111-1.751-8.361-3.429-9.358-1.821-1.078-3.327-1.278-4.475-.588-2.491,1.492-3.206,6.8-3.071,9.785.32,7.086,2.182,16.372,9.254,20.368,2.44,1.379,6.428,2.742,9.409,2.5l.91-.076-.006.912a103.326,103.326,0,0,0,1.123,17.344" transform="translate(48.162 167.488)" fill="#50aa50"/>
    <path id="Trazado_87" data-name="Trazado 87" d="M95.588,269.092H63.659a3.362,3.362,0,0,1-3.385-2.771l-7.249-37.213,3.007-.588,7.251,37.215a.341.341,0,0,0,.376.291H95.588a.342.342,0,0,0,.378-.289l7.19-37.215,3.009.581-7.19,37.217a3.36,3.36,0,0,1-3.387,2.772" transform="translate(47.255 203.655)" fill="#415b91"/>
    <path id="Trazado_88" data-name="Trazado 88" d="M53.97,222.5h53c.9,0,1.643,1,1.643,2.222v8.056c0,1.222-.739,2.22-1.643,2.22h-53c-.9,0-1.642-1-1.642-2.22v-8.056c0-1.224.738-2.222,1.642-2.222" transform="translate(46.634 198.289)" fill="#b6d0fb"/>
    <path id="Trazado_89" data-name="Trazado 89" d="M107.359,236.227h-53a2.815,2.815,0,0,1-2.476-3.056v-8.056a2.815,2.815,0,0,1,2.476-3.056h53a2.815,2.815,0,0,1,2.477,3.056v8.056a2.815,2.815,0,0,1-2.477,3.056m-53-12.5c-.38,0-.808.594-.808,1.386v8.056c0,.792.427,1.386.808,1.386h53c.382,0,.809-.594.809-1.386v-8.056c0-.792-.427-1.386-.809-1.386Z" transform="translate(46.241 197.896)" fill="#405b91"/>
    <path id="Trazado_90" data-name="Trazado 90" d="M107.3,236.025h-53a2.68,2.68,0,0,1-2.339-2.918V225.05a2.682,2.682,0,0,1,2.339-2.92h53a2.682,2.682,0,0,1,2.341,2.92v8.056a2.68,2.68,0,0,1-2.341,2.918m-53-12.5c-.446,0-.944.626-.944,1.524v8.056c0,.9.5,1.522.944,1.522h53c.448,0,.946-.626.946-1.522V225.05c0-.9-.5-1.524-.946-1.524Z" transform="translate(46.305 197.96)" fill="#b6d0fb"/>
    <path id="Trazado_91" data-name="Trazado 91" d="M107.69,237.253h-53a3.5,3.5,0,0,1-3.173-3.754v-8.055a3.506,3.506,0,0,1,3.173-3.756h53a3.506,3.506,0,0,1,3.175,3.756V233.5a3.5,3.5,0,0,1-3.175,3.754m-52.9-12.5a1.071,1.071,0,0,0-.2.69V233.5a.978.978,0,0,0,.235.717l52.872-.028c-.062-.015.11-.261.11-.688v-8.055a.978.978,0,0,0-.236-.719Z" transform="translate(45.912 197.567)" fill="#405b91"/>
    <path id="Trazado_92" data-name="Trazado 92" d="M56.582,206.467q1.308.167,2.614.333c.938.121.929-1.352,0-1.469L56.582,205c-.936-.119-.929,1.352,0,1.471" transform="translate(49.802 182.683)" fill="#50aa50"/>
    <path id="Trazado_93" data-name="Trazado 93" d="M58.286,199.989V201.3a.736.736,0,0,0,1.471,0v-1.307a.736.736,0,0,0-1.471,0" transform="translate(51.944 177.595)" fill="#50aa50"/>
    <path id="Trazado_94" data-name="Trazado 94" d="M61.5,207.933l1.914-1.065c.826-.461.087-1.732-.743-1.271q-.956.533-1.914,1.065c-.826.461-.085,1.732.743,1.271" transform="translate(53.821 183.138)" fill="#50aa50"/>
    <path id="Trazado_95" data-name="Trazado 95" d="M57.485,217.156l2.3-1.611c.772-.539.036-1.816-.741-1.271l-2.305,1.611c-.77.539-.036,1.816.743,1.271" transform="translate(50.277 190.84)" fill="#50aa50"/>
    <path id="Trazado_96" data-name="Trazado 96" d="M54.3,209.741q.82.321,1.64.643c.881.344,1.263-1.078.39-1.418q-.817-.323-1.638-.643c-.883-.346-1.265,1.076-.391,1.418" transform="translate(47.95 185.607)" fill="#50aa50"/>
    <path id="Trazado_97" data-name="Trazado 97" d="M60.045,213.352a1.032,1.032,0,0,1,.773.452c.6.73,1.64-.316,1.04-1.04a2.45,2.45,0,0,0-1.814-.883c-.946-.068-.94,1.4,0,1.471" transform="translate(52.882 188.824)" fill="#50aa50"/>
    <path id="Trazado_98" data-name="Trazado 98" d="M61.451,216.569a5,5,0,0,0,.359,2.865c.367.87,1.636.121,1.269-.741a3.127,3.127,0,0,1-.21-1.732c.144-.927-1.273-1.326-1.418-.391" transform="translate(54.703 192.529)" fill="#50aa50"/>
    <path id="Trazado_99" data-name="Trazado 99" d="M65.728,217.143l1.3.348a.736.736,0,0,0,.391-1.418l-1.3-.348a.736.736,0,0,0-.391,1.418" transform="translate(58.111 192.226)" fill="#50aa50"/>
    <path id="Trazado_100" data-name="Trazado 100" d="M67.97,209.146a2.444,2.444,0,0,0,.879,2.139c.719.607,1.764-.427,1.04-1.04a1.128,1.128,0,0,1-.448-1.1c.085-.942-1.386-.936-1.471,0" transform="translate(60.564 185.761)" fill="#50aa50"/>
    <path id="Trazado_101" data-name="Trazado 101" d="M67.182,203.407a2.278,2.278,0,0,0-.38,1.876c.165.93,1.581.535,1.418-.391a.8.8,0,0,1,.233-.741c.56-.764-.717-1.5-1.271-.743" transform="translate(59.486 180.991)" fill="#50aa50"/>
    <path id="Trazado_102" data-name="Trazado 102" d="M71.249,205.865v1.307a.736.736,0,0,0,1.471,0v-1.307a.736.736,0,0,0-1.471,0" transform="translate(63.496 182.832)" fill="#50aa50"/>
    <path id="Trazado_103" data-name="Trazado 103" d="M64.168,204.968q.491.326.98.654c.791.526,1.528-.747.743-1.271q-.491-.326-.98-.654c-.791-.526-1.528.747-.743,1.271" transform="translate(56.887 181.421)" fill="#50aa50"/>
    <path id="Trazado_104" data-name="Trazado 104" d="M65.4,198.461a1.83,1.83,0,0,1,.46,1.11c.072.936,1.543.946,1.469,0a3.533,3.533,0,0,0-.889-2.15c-.617-.721-1.653.325-1.04,1.04" transform="translate(58.116 175.724)" fill="#50aa50"/>
    <path id="Trazado_105" data-name="Trazado 105" d="M67.274,195.84V197.8a.736.736,0,0,0,1.471,0V195.84a.736.736,0,0,0-1.471,0" transform="translate(59.954 173.897)" fill="#50aa50"/>
    <path id="Trazado_106" data-name="Trazado 106" d="M72.181,200.671l.637.669c.654.686,1.693-.354,1.04-1.04l-.637-.669c-.654-.686-1.693.354-1.04,1.04" transform="translate(64.142 177.709)" fill="#50aa50"/>
    <path id="Trazado_107" data-name="Trazado 107" d="M73.188,196.134l1.955.112c.946.055.942-1.417,0-1.471-.652-.036-1.3-.074-1.955-.112-.946-.055-.942,1.416,0,1.471" transform="translate(64.593 173.48)" fill="#50aa50"/>
    <path id="Trazado_108" data-name="Trazado 108" d="M74.058,189.8l1.307,1.307a.736.736,0,0,0,1.04-1.04L75.1,188.764a.736.736,0,0,0-1.04,1.04" transform="translate(65.807 168.032)" fill="#50aa50"/>
    <path id="Trazado_109" data-name="Trazado 109" d="M76.953,187.544v2.288a.736.736,0,0,0,1.471,0v-2.288a.736.736,0,0,0-1.471,0" transform="translate(68.58 166.504)" fill="#50aa50"/>
    <path id="Trazado_110" data-name="Trazado 110" d="M79.02,195.459l.649-.983c.522-.792-.751-1.53-1.271-.743-.216.327-.431.656-.649.983-.522.794.751,1.532,1.271.743" transform="translate(69.179 172.353)" fill="#50aa50"/>
    <path id="Trazado_111" data-name="Trazado 111" d="M76.143,203.12c.547-.212,1.093-.426,1.642-.637.872-.34.492-1.763-.391-1.418l-1.642.637c-.872.339-.494,1.763.391,1.418" transform="translate(67.069 179.139)" fill="#50aa50"/>
    <path id="Trazado_112" data-name="Trazado 112" d="M79.6,201.877l1.632-.339c.927-.191.533-1.609-.391-1.418l-1.632.339c-.927.193-.533,1.611.391,1.418" transform="translate(70.121 178.329)" fill="#50aa50"/>
    <path id="Trazado_113" data-name="Trazado 113" d="M76.953,205v.327a.736.736,0,0,0,1.471,0V205a.736.736,0,0,0-1.471,0" transform="translate(68.58 182.061)" fill="#50aa50"/>
    <path id="Trazado_114" data-name="Trazado 114" d="M70.782,217.54q.491-.326.982-.654c.783-.522.047-1.8-.743-1.269l-.982.652c-.783.524-.047,1.8.743,1.271" transform="translate(62.12 192.044)" fill="#50aa50"/>
    <path id="Trazado_115" data-name="Trazado 115" d="M70.417,220.626a4.1,4.1,0,0,1,2-1.072c.921-.216.531-1.634-.391-1.418a5.6,5.6,0,0,0-2.65,1.451c-.685.656.356,1.694,1.04,1.04" transform="translate(61.628 194.38)" fill="#50aa50"/>
    <path id="Trazado_116" data-name="Trazado 116" d="M66.658,220.435c.112.217.221.435.331.651.431.843,1.7.1,1.271-.741-.11-.217-.221-.435-.331-.652-.431-.843-1.7-.1-1.271.743" transform="translate(59.327 195.456)" fill="#50aa50"/>
    <path id="Trazado_117" data-name="Trazado 117" d="M63.829,221.387a3.648,3.648,0,0,0,2.54.352c.927-.187.535-1.606-.391-1.418a1.987,1.987,0,0,1-1.405-.2c-.84-.435-1.585.834-.743,1.271" transform="translate(56.554 196.085)" fill="#50aa50"/>
    <path id="Trazado_118" data-name="Trazado 118" d="M70.415,214.238l2.937-.369c.927-.115.938-1.589,0-1.469q-1.469.182-2.937.367c-.927.117-.938,1.589,0,1.471" transform="translate(62.13 189.283)" fill="#50aa50"/>
    <path id="Trazado_119" data-name="Trazado 119" d="M141.746,201.462q23.75-21.469,47.5-42.939c2.347-2.12-1.129-5.579-3.467-3.467Q162.028,176.525,138.28,198c-2.347,2.12,1.129,5.579,3.467,3.467" transform="translate(122.538 137.598)" fill="#d7e7ff"/>
    <path id="Trazado_120" data-name="Trazado 120" d="M170.129,213.043q23.75-21.469,47.5-42.938c2.347-2.122-1.129-5.581-3.467-3.468q-23.747,21.469-47.5,42.939c-2.347,2.12,1.129,5.579,3.467,3.467" transform="translate(147.833 147.918)" fill="#d7e7ff"/>
    <path id="Trazado_121" data-name="Trazado 121" d="M139.27,247.152q49.771-48.535,99.545-97.069c2.266-2.207-1.2-5.674-3.465-3.468q-49.774,48.535-99.548,97.071c-2.264,2.207,1.2,5.672,3.468,3.467" transform="translate(120.368 130.032)" fill="#d7e7ff"/>
    <rect id="Rectángulo_6" data-name="Rectángulo 6" width="2.135" height="136.994" transform="translate(409.651 75.337)" fill="#415b91"/>
    <path id="Trazado_122" data-name="Trazado 122" d="M229.968,116.372a8.7,8.7,0,1,1-8.7-8.7,8.7,8.7,0,0,1,8.7,8.7" transform="translate(189.446 95.96)" fill="#415b91"/>
    <path id="Trazado_123" data-name="Trazado 123" d="M220.6,138.428a7.18,7.18,0,0,1-7.139-7.794,1.151,1.151,0,1,1,2.3,0,5.527,5.527,0,0,0,1.409,4.068,5.459,5.459,0,0,0,3.429,1.424,5.883,5.883,0,1,0,0-11.767,1.151,1.151,0,0,1-1.15-1.152v-6.392a1.15,1.15,0,1,1,2.3,0v5.322a8.186,8.186,0,0,1-1.15,16.291Z" transform="translate(190.237 103.079)" fill="#415b91"/>
    <path id="Trazado_124" data-name="Trazado 124" d="M193.509,134.8a1.067,1.067,0,0,1,.026-2.107l47.072-6.935a1.067,1.067,0,0,1,.31,2.111l-47.07,6.935a1.066,1.066,0,0,1-.339,0" transform="translate(171.665 112.062)" fill="#415b91"/>
    <path id="Trazado_125" data-name="Trazado 125" d="M261.681,150.462a1.016,1.016,0,0,1-.312-.106l-43.282-22.6a1.068,1.068,0,0,1,.987-1.893l43.282,22.6a1.067,1.067,0,0,1-.675,2" transform="translate(193.846 112.062)" fill="#415b91"/>
    <path id="Trazado_126" data-name="Trazado 126" d="M297.66,237.7,182.382,217.666a11.1,11.1,0,0,1-9.036-12.836l11.532-66.377a11.1,11.1,0,0,1,12.837-9.036l115.277,20.031a11.1,11.1,0,0,1,9.036,12.837L310.5,228.661A11.1,11.1,0,0,1,297.66,237.7" transform="translate(154.337 115.187)" fill="#fff"/>
    <path id="Trazado_127" data-name="Trazado 127" d="M299.9,239.931a13.017,13.017,0,0,1-2.232-.193L183.2,219.848a12.983,12.983,0,0,1-10.568-15.014l11.394-65.564a13,13,0,0,1,15.012-10.57L313.5,148.592A12.985,12.985,0,0,1,324.075,163.6L312.68,229.17A13.007,13.007,0,0,1,299.9,239.931M196.811,131.45a10.056,10.056,0,0,0-9.889,8.323l-11.393,65.564a10.043,10.043,0,0,0,8.174,11.614l114.466,19.888a10.05,10.05,0,0,0,11.612-8.174L321.173,163.1A10.036,10.036,0,0,0,313,151.489L198.532,131.6a10.059,10.059,0,0,0-1.721-.148" transform="translate(153.672 114.525)" fill="#415b91"/>
    <path id="Trazado_128" data-name="Trazado 128" d="M293.7,227.095,182.528,207.776a7.09,7.09,0,0,1-5.772-8.2l10.532-60.613a7.093,7.093,0,0,1,8.2-5.774l111.175,19.318a7.093,7.093,0,0,1,5.774,8.2l-10.532,60.611a7.092,7.092,0,0,1-8.2,5.774" transform="translate(157.429 118.603)" fill="#b6d0fb"/>
    <path id="Trazado_129" data-name="Trazado 129" d="M295.4,229.305a8.89,8.89,0,0,1-1.528-.132L183.21,209.945a8.828,8.828,0,0,1-7.185-10.207l10.441-60.094a8.829,8.829,0,0,1,10.207-7.185l110.657,19.23a8.834,8.834,0,0,1,7.185,10.2l-10.441,60.093a8.833,8.833,0,0,1-8.679,7.319m-1.027-3.032a5.883,5.883,0,0,0,6.8-4.789l10.443-60.094a5.892,5.892,0,0,0-4.788-6.8L196.171,135.359a5.9,5.9,0,0,0-6.806,4.79l-10.441,60.093a5.886,5.886,0,0,0,4.79,6.8Z" transform="translate(156.754 117.928)" fill="#405b91"/>
    <path id="Trazado_130" data-name="Trazado 130" d="M210.656,190.372l28.767-26.365,15.922,34.13Z" transform="translate(187.735 146.161)" fill="#fff"/>
    <path id="Trazado_131" data-name="Trazado 131" d="M258.032,200.192l-48.5-8.429,31.224-28.616ZM213.8,190.514l40.87,7.1L240.1,166.4Z" transform="translate(186.73 145.395)" fill="#415b91"/>
    <path id="Trazado_132" data-name="Trazado 132" d="M180.579,194.748l51-46.743L259.8,208.514Z" transform="translate(160.93 131.901)" fill="#fff"/>
    <path id="Trazado_133" data-name="Trazado 133" d="M262.493,210.567l-83.042-14.43,53.456-48.991Zm-78.777-15.678,75.411,13.1-26.866-57.6Z" transform="translate(159.925 131.135)" fill="#415b91"/>
    <path id="Trazado_134" data-name="Trazado 134" d="M246.286,156.629a7.132,7.132,0,1,1-5.806-8.247,7.133,7.133,0,0,1,5.806,8.247" transform="translate(206.868 132.141)" fill="#fff"/>
    <path id="Trazado_135" data-name="Trazado 135" d="M239.736,163.985a8.237,8.237,0,0,1-1.405-.123,8.058,8.058,0,1,1,1.405.123m-.028-14.269a6.163,6.163,0,1,0,1.065.093,6.107,6.107,0,0,0-1.065-.093" transform="translate(206.407 131.677)" fill="#415b91"/>
    <rect id="Rectángulo_7" data-name="Rectángulo 7" width="106.903" height="11.763" transform="translate(392.002 70.729)" fill="#b6d0fb"/>
    <path id="Trazado_136" data-name="Trazado 136" d="M329.653,313.869h-35.49V.083h35.49Zm-31.98-3.51h28.468V3.593H297.673Z" transform="translate(262.155 0.074)" fill="#415b91"/>
    <path id="Trazado_137" data-name="Trazado 137" d="M329,34.6H294.4V0H329Zm-31.044-3.555h27.487V3.557H297.954Z" transform="translate(262.365)" fill="#415b91"/>
    <rect id="Rectángulo_8" data-name="Rectángulo 8" width="3.557" height="43.9" transform="translate(557.285 3.037) rotate(-45)" fill="#415b91"/>
    <rect id="Rectángulo_9" data-name="Rectángulo 9" width="43.901" height="3.558" transform="matrix(0.707, -0.707, 0.707, 0.707, 557.284, 31.564)" fill="#415b91"/>
    <path id="Trazado_138" data-name="Trazado 138" d="M329,51.013H294.4v-34.6H329Zm-31.044-3.555h27.487V19.971H297.954Z" transform="translate(262.365 14.628)" fill="#415b91"/>
    <rect id="Rectángulo_10" data-name="Rectángulo 10" width="3.557" height="43.9" transform="translate(557.285 34.079) rotate(-45)" fill="#415b91"/>
    <rect id="Rectángulo_11" data-name="Rectángulo 11" width="43.901" height="3.558" transform="matrix(0.707, -0.707, 0.707, 0.707, 557.284, 62.606)" fill="#415b91"/>
    <path id="Trazado_139" data-name="Trazado 139" d="M329,67.428H294.4v-34.6H329Zm-31.044-3.557h27.487V36.384H297.954Z" transform="translate(262.365 29.257)" fill="#415b91"/>
    <rect id="Rectángulo_12" data-name="Rectángulo 12" width="3.557" height="43.9" transform="translate(557.285 65.122) rotate(-45)" fill="#415b91"/>
    <rect id="Rectángulo_13" data-name="Rectángulo 13" width="43.901" height="3.558" transform="matrix(0.707, -0.707, 0.707, 0.707, 557.284, 93.649)" fill="#415b91"/>
    <path id="Trazado_140" data-name="Trazado 140" d="M329,83.842H294.4v-34.6H329Zm-31.044-3.557h27.487V52.8H297.954Z" transform="translate(262.365 43.885)" fill="#415b91"/>
    <rect id="Rectángulo_14" data-name="Rectángulo 14" width="3.557" height="43.9" transform="translate(557.285 96.165) rotate(-45)" fill="#415b91"/>
    <rect id="Rectángulo_15" data-name="Rectángulo 15" width="43.901" height="3.558" transform="matrix(0.707, -0.707, 0.707, 0.707, 557.284, 124.691)" fill="#415b91"/>
    <path id="Trazado_141" data-name="Trazado 141" d="M329,100.256H294.4v-34.6H329ZM297.954,96.7h27.487V69.214H297.954Z" transform="translate(262.365 58.513)" fill="#415b91"/>
    <rect id="Rectángulo_16" data-name="Rectángulo 16" width="3.557" height="43.9" transform="translate(557.285 127.207) rotate(-45)" fill="#415b91"/>
    <rect id="Rectángulo_17" data-name="Rectángulo 17" width="43.901" height="3.558" transform="matrix(0.707, -0.707, 0.707, 0.707, 557.284, 155.734)" fill="#415b91"/>
    <path id="Trazado_142" data-name="Trazado 142" d="M329,116.671H294.4v-34.6H329Zm-31.044-3.557h27.487V85.627H297.954Z" transform="translate(262.365 73.142)" fill="#415b91"/>
    <rect id="Rectángulo_18" data-name="Rectángulo 18" width="3.557" height="43.9" transform="translate(557.285 158.25) rotate(-45)" fill="#415b91"/>
    <rect id="Rectángulo_19" data-name="Rectángulo 19" width="43.901" height="3.558" transform="matrix(0.707, -0.707, 0.707, 0.707, 557.284, 186.777)" fill="#415b91"/>
    <path id="Trazado_143" data-name="Trazado 143" d="M329,133.085H294.4v-34.6H329Zm-31.044-3.557h27.487V102.041H297.954Z" transform="translate(262.365 87.77)" fill="#415b91"/>
    <rect id="Rectángulo_20" data-name="Rectángulo 20" width="3.557" height="43.9" transform="translate(557.285 189.292) rotate(-45)" fill="#415b91"/>
    <rect id="Rectángulo_21" data-name="Rectángulo 21" width="43.901" height="3.558" transform="matrix(0.707, -0.707, 0.707, 0.707, 557.284, 217.819)" fill="#415b91"/>
    <path id="Trazado_144" data-name="Trazado 144" d="M329,149.5H294.4V114.9H329Zm-31.044-3.555h27.487V118.457H297.954Z" transform="translate(262.365 102.398)" fill="#415b91"/>
    <rect id="Rectángulo_22" data-name="Rectángulo 22" width="3.557" height="43.9" transform="translate(557.285 220.335) rotate(-45)" fill="#415b91"/>
    <rect id="Rectángulo_23" data-name="Rectángulo 23" width="43.901" height="3.558" transform="translate(557.284 248.861) rotate(-45)" fill="#415b91"/>
    <path id="Trazado_145" data-name="Trazado 145" d="M329,165.913H294.4v-34.6H329Zm-31.044-3.555h27.487V134.871H297.954Z" transform="translate(262.365 117.026)" fill="#415b91"/>
    <rect id="Rectángulo_24" data-name="Rectángulo 24" width="3.557" height="43.9" transform="translate(557.285 251.377) rotate(-45)" fill="#415b91"/>
    <rect id="Rectángulo_25" data-name="Rectángulo 25" width="43.901" height="3.558" transform="translate(557.284 279.904) rotate(-45)" fill="#415b91"/>
    <path id="Trazado_146" data-name="Trazado 146" d="M329,182.328H294.4v-34.6H329Zm-31.044-3.557h27.487V151.284H297.954Z" transform="translate(262.365 131.655)" fill="#415b91"/>
    <rect id="Rectángulo_26" data-name="Rectángulo 26" width="3.556" height="43.901" transform="translate(557.285 282.418) rotate(-44.998)" fill="#415b91"/>
    <rect id="Rectángulo_27" data-name="Rectángulo 27" width="43.901" height="3.557" transform="translate(557.284 310.947) rotate(-45)" fill="#415b91"/>
    <path id="Trazado_147" data-name="Trazado 147" d="M361.659,50.766h-34.6v-34.6h34.6Zm-31.042-3.555H358.1V19.724H330.617Z" transform="translate(291.472 14.408)" fill="#415b91"/>
    <rect id="Rectángulo_28" data-name="Rectángulo 28" width="43.9" height="3.557" transform="matrix(0.707, -0.707, 0.707, 0.707, 619.053, 62.138)" fill="#415b91"/>
    <rect id="Rectángulo_29" data-name="Rectángulo 29" width="3.557" height="43.9" transform="translate(619.053 33.612) rotate(-45)" fill="#415b91"/>
    <path id="Trazado_148" data-name="Trazado 148" d="M345.245,50.766h-34.6v-34.6h34.6ZM314.2,47.211h27.487V19.724H314.2Z" transform="translate(276.844 14.408)" fill="#415b91"/>
    <rect id="Rectángulo_30" data-name="Rectángulo 30" width="43.9" height="3.557" transform="matrix(0.707, -0.707, 0.707, 0.707, 588.011, 62.138)" fill="#415b91"/>
    <rect id="Rectángulo_31" data-name="Rectángulo 31" width="3.557" height="43.9" transform="translate(588.011 33.612) rotate(-45)" fill="#415b91"/>
    <path id="Trazado_149" data-name="Trazado 149" d="M328.83,50.766h-34.6v-34.6h34.6Zm-31.042-3.555h27.487V19.724H297.788Z" transform="translate(262.216 14.408)" fill="#415b91"/>
    <path id="Trazado_150" data-name="Trazado 150" d="M312.416,50.766h-34.6v-34.6h34.6Zm-31.042-3.555h27.487V19.724H281.374Z" transform="translate(247.588 14.408)" fill="#415b91"/>
    <rect id="Rectángulo_32" data-name="Rectángulo 32" width="43.901" height="3.556" transform="matrix(0.707, -0.707, 0.707, 0.707, 525.926, 62.139)" fill="#415b91"/>
    <rect id="Rectángulo_33" data-name="Rectángulo 33" width="3.556" height="43.901" transform="translate(525.926 33.611) rotate(-45)" fill="#415b91"/>
    <path id="Trazado_151" data-name="Trazado 151" d="M296,50.766H261.4v-34.6H296Zm-31.044-3.555h27.487V19.724H264.958Z" transform="translate(232.96 14.408)" fill="#415b91"/>
    <rect id="Rectángulo_34" data-name="Rectángulo 34" width="43.901" height="3.557" transform="matrix(0.707, -0.707, 0.707, 0.707, 494.883, 62.139)" fill="#415b91"/>
    <rect id="Rectángulo_35" data-name="Rectángulo 35" width="3.556" height="43.901" transform="translate(494.883 33.611) rotate(-45)" fill="#415b91"/>
    <path id="Trazado_152" data-name="Trazado 152" d="M279.587,50.766h-34.6v-34.6h34.6Zm-31.042-3.555h27.487V19.724H248.545Z" transform="translate(218.331 14.408)" fill="#415b91"/>
    <path id="Trazado_153" data-name="Trazado 153" d="M261.395,50.521H230.353a1.778,1.778,0,0,1-1.258-3.035l31.042-31.044,2.515,2.515L234.646,46.964h26.013l30.52-30.522,2.515,2.515L262.653,50a1.781,1.781,0,0,1-1.258.52" transform="translate(203.703 14.653)" fill="#415b91"/>
    <rect id="Rectángulo_36" data-name="Rectángulo 36" width="3.556" height="43.901" transform="translate(463.84 33.611) rotate(-45)" fill="#415b91"/>
    <path id="Trazado_154" data-name="Trazado 154" d="M329.729,200.6H294.163V166h35.566Zm-31.908-3.557h28.253V169.558H297.821Z" transform="translate(262.155 147.94)" fill="#415b91"/>
    <path id="Trazado_155" data-name="Trazado 155" d="M326.355,199.836l-31.908-31.042,2.585-2.515,31.908,31.042Z" transform="translate(262.408 148.186)" fill="#415b91"/>
    <path id="Trazado_156" data-name="Trazado 156" d="M297.032,199.836l-2.585-2.515,31.908-31.042,2.587,2.515Z" transform="translate(262.408 148.186)" fill="#415b91"/>
    <path id="Trazado_157" data-name="Trazado 157" d="M329.729,266.259H294.163v-34.6h35.566ZM297.821,262.7h28.253V235.215H297.821Z" transform="translate(262.155 206.453)" fill="#415b91"/>
    <path id="Trazado_158" data-name="Trazado 158" d="M326.355,265.493l-31.908-31.042,2.585-2.515,31.908,31.042Z" transform="translate(262.408 206.699)" fill="#415b91"/>
    <path id="Trazado_159" data-name="Trazado 159" d="M297.032,265.493l-2.585-2.515,31.908-31.042,2.587,2.515Z" transform="translate(262.408 206.699)" fill="#415b91"/>
    <path id="Trazado_160" data-name="Trazado 160" d="M329.729,215.461H294.163v-34.6h35.566ZM297.821,211.9h28.253V184.417H297.821Z" transform="translate(262.155 161.182)" fill="#415b91"/>
    <path id="Trazado_161" data-name="Trazado 161" d="M326.355,214.695l-31.908-31.042,2.585-2.515,31.908,31.042Z" transform="translate(262.408 161.428)" fill="#415b91"/>
    <path id="Trazado_162" data-name="Trazado 162" d="M297.032,214.695l-2.585-2.515,31.908-31.042,2.587,2.515Z" transform="translate(262.408 161.428)" fill="#415b91"/>
    <path id="Trazado_163" data-name="Trazado 163" d="M329.729,231.875H294.163v-34.6h35.566Zm-31.908-3.557h28.253V200.831H297.821Z" transform="translate(262.155 175.81)" fill="#415b91"/>
    <path id="Trazado_164" data-name="Trazado 164" d="M326.355,231.109l-31.908-31.042,2.585-2.515,31.908,31.042Z" transform="translate(262.408 176.056)" fill="#415b91"/>
    <path id="Trazado_165" data-name="Trazado 165" d="M297.032,231.109l-2.585-2.515,31.908-31.042,2.587,2.515Z" transform="translate(262.408 176.056)" fill="#415b91"/>
    <path id="Trazado_166" data-name="Trazado 166" d="M329.729,248.289H294.163v-34.6h35.566Zm-31.908-3.557h28.253V217.245H297.821Z" transform="translate(262.155 190.438)" fill="#415b91"/>
    <path id="Trazado_167" data-name="Trazado 167" d="M326.355,247.523l-31.908-31.042,2.585-2.515,31.908,31.042Z" transform="translate(262.408 190.684)" fill="#415b91"/>
    <path id="Trazado_168" data-name="Trazado 168" d="M297.032,247.523l-2.585-2.515,31.908-31.042,2.587,2.515Z" transform="translate(262.408 190.684)" fill="#415b91"/>
    <path id="Trazado_169" data-name="Trazado 169" d="M104.435,102.327c3.786,0,3.792-5.883,0-5.883s-3.792,5.883,0,5.883" transform="translate(90.539 85.95)" fill="#405b91"/>
    <path id="Trazado_170" data-name="Trazado 170" d="M273.133,69.831c3.786,0,3.792-5.882,0-5.882s-3.792,5.882,0,5.882" transform="translate(240.881 56.991)" fill="#405b91"/>
    <line id="Línea_1" data-name="Línea 1" x2="1.307" transform="translate(646.076 334.394)" fill="#405b91"/>
    <path id="Trazado_171" data-name="Trazado 171" d="M343.012,181.145h1.307a2.942,2.942,0,1,0,0-5.883h-1.307a2.942,2.942,0,1,0,0,5.883" transform="translate(303.064 156.192)" fill="#405b91"/>
    <path id="Trazado_172" data-name="Trazado 172" d="M42.9,203.96c3.786,0,3.792-5.883,0-5.883s-3.792,5.883,0,5.883" transform="translate(35.701 176.524)" fill="#405b91"/>
    <path id="Trazado_173" data-name="Trazado 173" d="M191.55,54.621c3.786,0,3.792-5.883,0-5.883s-3.792,5.883,0,5.883" transform="translate(168.175 43.435)" fill="#405b91"/>
  </g>
</svg>
